<svg width="291" height="112" viewBox="0 0 291 112" fill="none" xmlns="http://www.w3.org/2000/svg">
<path d="M61.1938 0.337196H48.3711V70.1398H61.1938V0.337196ZM79.0151 22.7052H66.1925V70.1398H79.0151V22.7052ZM64.6484 8.13187C64.6484 12.3745 68.2164 15.9412 72.5551 15.9412C76.9898 15.9412 80.4604 12.3745 80.4604 8.13187C80.4604 3.6972 76.9898 0.129189 72.5551 0.129189C68.2164 0.129189 64.6484 3.6972 64.6484 8.13187ZM96.8351 88.4585V65.5119C99.1485 68.6945 103.97 71.2972 110.526 71.2972C123.927 71.2972 132.894 60.6919 132.894 46.3265C132.894 32.2505 124.891 21.6452 111.008 21.6452C103.874 21.6452 98.5711 24.8265 96.4498 28.4905V22.7052H84.0124V88.4585H96.8351ZM120.263 46.4225C120.263 54.9065 115.058 59.8238 108.5 59.8238C101.944 59.8238 96.6418 54.8105 96.6418 46.4225C96.6418 38.0345 101.944 33.1172 108.5 33.1172C115.058 33.1172 120.263 38.0345 120.263 46.4225ZM150.055 88.4585V65.5119C152.368 68.6945 157.19 71.2972 163.746 71.2972C177.147 71.2972 186.114 60.6919 186.114 46.3265C186.114 32.2505 178.111 21.6452 164.227 21.6452C157.092 21.6452 151.79 24.8265 149.67 28.4905V22.7052H137.232V88.4585H150.055ZM173.483 46.4225C173.483 54.9065 168.276 59.8238 161.72 59.8238C155.164 59.8238 149.862 54.8105 149.862 46.4225C149.862 38.0345 155.164 33.1172 161.72 33.1172C168.276 33.1172 173.483 38.0345 173.483 46.4225ZM202.68 41.0239C202.97 36.6852 206.634 31.6719 213.287 31.6719C220.614 31.6719 223.699 36.2999 223.892 41.0239H202.68ZM225.146 53.3652C223.603 57.6065 220.324 60.5959 214.347 60.5959C207.984 60.5959 202.68 56.0639 202.392 49.7972H236.33C236.33 49.6039 236.522 47.6759 236.522 45.8439C236.522 30.6105 227.748 21.2585 213.094 21.2585C200.946 21.2585 189.762 31.0932 189.762 46.2305C189.762 62.2345 201.235 71.5865 214.251 71.5865C225.916 71.5865 233.436 64.7412 235.847 56.5465L225.146 53.3652ZM288.955 0.337196H276.324V27.4292C274.975 24.9225 271.118 21.5479 262.923 21.5479C249.522 21.5479 240.17 32.4425 240.17 46.3265C240.17 60.6919 249.811 71.2972 263.308 71.2972C269.672 71.2972 274.492 68.4052 276.614 64.6452C276.614 66.8626 276.903 69.1758 277.096 70.1398H289.34C289.147 68.2118 288.955 64.7412 288.955 61.5599V0.337196ZM253.09 46.3265C253.09 37.8425 258.295 33.0212 264.851 33.0212C271.407 33.0212 276.518 37.7452 276.518 46.2305C276.518 54.8105 271.407 59.8238 264.851 59.8238C258.103 59.8238 253.09 54.8105 253.09 46.3265Z" fill="#28D2CF"/>
<path d="M29.792 70.2547V42.696H3.27865V30.452H29.888V12.6307H0V0H43.1934V70.2547H29.792Z" fill="#28D2CF"/>
<path d="M168.571 89.839C168.746 87.5604 170.587 85.107 173.786 85.107C177.29 85.107 178.955 87.3417 179.043 89.839H168.571ZM179.612 95.403C178.911 97.507 177.334 99.1283 174.267 99.1283C171.112 99.1283 168.571 96.8057 168.439 93.563H184.038C184.082 93.4764 184.17 92.775 184.17 91.9417C184.17 85.195 180.314 80.8564 173.742 80.8564C168.352 80.8564 163.356 85.3257 163.356 92.0737C163.356 99.303 168.483 103.51 174.267 103.51C179.394 103.51 182.767 100.486 183.907 96.7617L179.612 95.403ZM191.486 90.5404C191.486 87.7364 193.019 85.5017 195.911 85.5017C199.11 85.5017 200.294 87.6043 200.294 90.2337V102.852H205.376V89.3577C205.376 84.6684 202.878 80.9003 197.664 80.9003C195.298 80.9003 192.756 81.9084 191.355 84.3617V81.5137H186.403V102.852H191.486V90.5404ZM212.474 89.839C212.648 87.5604 214.488 85.107 217.687 85.107C221.192 85.107 222.858 87.3417 222.946 89.839H212.474ZM223.515 95.403C222.814 97.507 221.236 99.1283 218.17 99.1283C215.015 99.1283 212.474 96.8057 212.342 93.563H227.94C227.984 93.4764 228.072 92.775 228.072 91.9417C228.072 85.195 224.216 80.8564 217.643 80.8564C212.254 80.8564 207.259 85.3257 207.259 92.0737C207.259 99.303 212.386 103.51 218.17 103.51C223.296 103.51 226.67 100.486 227.808 96.7617L223.515 95.403ZM243.67 81.383C243.451 81.339 242.924 81.251 242.311 81.251C239.507 81.251 237.142 82.6097 236.134 84.931V81.5137H231.182V102.852H236.264V92.687C236.264 88.7003 238.062 86.4217 242.004 86.4217C242.531 86.4217 243.1 86.4657 243.67 86.5524V81.383ZM244.415 104.035C244.984 108.33 248.927 111.835 254.58 111.835C262.598 111.835 265.534 106.532 265.534 100.836V81.5137H260.626V84.231C259.706 82.4777 257.647 81.1204 254.316 81.1204C248.446 81.1204 244.458 85.8084 244.458 91.5044C244.458 97.507 248.62 101.888 254.316 101.888C257.428 101.888 259.575 100.443 260.495 98.7777V101.012C260.495 105.35 258.479 107.41 254.448 107.41C251.512 107.41 249.454 105.438 249.103 102.808L244.415 104.035ZM255.15 97.551C251.819 97.551 249.584 95.2284 249.584 91.5044C249.584 87.867 251.907 85.5017 255.15 85.5017C258.304 85.5017 260.626 87.867 260.626 91.5044C260.626 95.1844 258.392 97.551 255.15 97.551ZM276.707 111.484L290.29 81.5137H284.9L279.16 95.0097L273.026 81.5137H267.286L276.4 100.311L271.274 111.484H276.707Z" fill="#0F1533"/>
</svg>
